<svg width="548" height="770" viewBox="0 0 548 770" fill="none" xmlns="http://www.w3.org/2000/svg">
<path d="M0 754.136V770H548V1.35899e-05L19 -3.05176e-05L16 15.8637C15.9038 16.3726 15.8034 16.8979 15.7 17.439C12.5807 33.7643 6.70578 64.5118 28 96.4025C36.4755 108.625 49.2551 120.848 62.1076 133.141C82.6167 152.757 103.312 172.55 107 192.805C110.686 212.295 98.1455 231.784 85.6053 251.274C77.7312 263.512 69.8571 275.75 66 287.987C61.5644 304.225 63.9298 320.167 66.2729 335.958C68.6841 352.208 71.0716 368.299 66 384.39C61.3519 401.406 48.9689 418.096 36.7026 434.629C25.2179 450.109 13.8355 465.451 9 480.792C3.24782 501.85 8.93332 522.41 14.5691 542.789C17.7512 554.296 20.9174 565.746 22 577.195C24.2742 601.247 17.9283 626 11.6752 650.391C9.67961 658.175 7.69348 665.922 6 673.597C0 705.325 0 738.273 0 754.136Z" fill="#3070F3"/>
</svg>
